<?xml version="1.0" encoding="UTF-8"?>
<svg id="Capa_2" data-name="Capa 2" xmlns="http://www.w3.org/2000/svg" viewBox="0 0 149.23 149.23">
  <defs>
    <style>
      .cls-1 {
        fill: #fff;
      }

      .cls-1, .cls-2 {
        stroke-width: 0px;
      }

      .cls-2 {
        fill: #e6816b;
      }
    </style>
  </defs>
  <g id="Capa_1-2" data-name="Capa 1">
    <circle class="cls-2" cx="74.61" cy="74.61" r="74.61"/>
    <g>
      <path class="cls-1" d="m129.26,60.4c.11-.13.09-.23.08-.27-3.32-15.51-17.23-26.76-33.08-26.76h-59.34c-.19,0-.32.1-.39.18l-.27.32-.32.27c-.07.06-.19.19-.19.39v59.34c0,15.85,11.26,29.76,26.76,33.08.04.01.14.03.27-.08.07-.06.19-.19.19-.39v-60.02c0-.07,0-.15,0-.22l-.07-1.38c-.13-2.45,1.89-4.47,4.34-4.34l1.36.07c.06,0,.16,0,.22,0h60.05c.21,0,.33-.12.39-.19Z"/>
      <path class="cls-1" d="m69.24,85.69c0,8.96,7.29,16.24,16.25,16.24s16.25-7.29,16.25-16.24-7.29-16.25-16.25-16.25-16.25,7.29-16.25,16.25Z"/>
    </g>
  </g>
</svg>